<svg id="Group_2" data-name="Group 2" xmlns="http://www.w3.org/2000/svg" width="302.74" height="56" viewBox="0 0 302.74 56">
  <g id="Group_6" data-name="Group 6" transform="translate(0 0)">
    <path id="Path_1" data-name="Path 1" d="M24.122,52.193,36.064,31.46l-8.074,0L32,24.5l18.972,0-4.02,6.98-6.858-.02L27.99,52.512a24.5,24.5,0,1,0,0-49,22.715,22.715,0,0,0-2.89.18L13.058,24.5H27.99L23.943,31.46H5L20.454,4.706a24.488,24.488,0,0,0,3.668,47.487M27.99,0A28,28,0,1,1,0,27.971,28.065,28.065,0,0,1,27.99,0" transform="translate(0 -0.001)" fill="#fff" fill-rule="evenodd"/>
    <path id="Path_2" data-name="Path 2" d="M385.964,53.748c.713-3.287,3.029-6.655,6.9-6.655s4.722,3.367,4.009,6.655c-.73,3.368-2.941,6.762-6.919,6.762s-4.717-3.394-3.986-6.762m-4.062,0c-1.24,5.719,1.178,9.706,7.41,9.706,6.148,0,10.4-4.067,11.62-9.706s-1.341-9.595-7.434-9.595c-6.176,0-10.355,3.875-11.6,9.595M365.15,63.129h3.9l1.681-7.75h1.252c1.641,0,2.027.534,2.281,1.924l1.073,5.827h4.34l-1.533-7.3c-.21-.829-.6-1.844-1.642-1.924l.012-.054a5.71,5.71,0,0,0,4.946-4.329c1.125-5.185-3.884-5.051-8.058-5.051h-4.2Zm7.3-15.715h1.28c1.948,0,4.077.187,3.59,2.432-.5,2.325-2.76,2.592-4.68,2.592h-1.28ZM349.042,63.129h6.789c2.448,0,6.995-.695,8.015-5.4.5-2.3-.939-4.009-3.529-4.25l.012-.054a5.581,5.581,0,0,0,4.772-4.169c.887-4.089-2.718-4.784-5.222-4.784h-6.789Zm7.3-15.715h1.5c1.78,0,3.721.16,3.251,2.325-.417,1.925-2.524,2.272-4.165,2.272h-1.586Zm-1.6,7.376h1.836c1.948,0,3.925.374,3.4,2.806-.47,2.165-2.76,2.592-4.569,2.592h-1.836Zm-23.078,1.6c-1.084,5,1.417,7.06,6.4,7.06s8.376-2.063,9.46-7.06l2.585-11.92h-3.9L343.88,55.244c-.69,3.18-2.2,5.265-5.176,5.265s-3.582-2.085-2.893-5.265l2.337-10.771h-3.9Zm-16.425-2.646c.713-3.287,3.029-6.655,6.9-6.655s4.722,3.367,4.009,6.655c-.73,3.368-2.941,6.762-6.919,6.762s-4.717-3.394-3.986-6.762m-4.062,0c-1.24,5.719,1.178,9.706,7.41,9.706,6.148,0,10.4-4.067,11.62-9.706s-1.341-9.595-7.434-9.595c-6.176,0-10.355,3.875-11.6,9.595m-10.242,9.381h3.9l3.409-15.715h5.564l.637-2.94H299.421l-.638,2.94h5.564ZM282.2,53.32c2.369-1.176,4.272-2.378,4.828-4.944.655-3.02-1.95-4.223-4.676-4.223s-6.206,1.417-6.82,4.249c-.464,2.138.518,3.127,1.724,4.49-3.36,1.256-4.716,2.887-5.2,5.131-.76,3.5,1.91,5.43,5.75,5.43a9.285,9.285,0,0,0,5.716-1.982l.948,1.657h4.785l-2.666-3.742A13.224,13.224,0,0,0,290.449,53h-3.394a7.944,7.944,0,0,1-2.105,4.063ZM280.448,51.4c-.595-.721-1.488-1.6-1.262-2.646a2.6,2.6,0,0,1,2.655-1.978c1.113,0,2.009.615,1.725,1.924-.238,1.1-2.039,2.218-3.117,2.7m1.682,8.152a5.869,5.869,0,0,1-3.638,1.122c-1.808,0-3.04-1.122-2.686-2.753.319-1.47,1.6-2.352,3.014-2.993Zm-38,3.581h3.728l3.026-13.951h.056l4.4,13.951H260.1l4.046-18.655h-3.728L257.39,58.425h-.056L252.96,44.474h-4.785Zm-14.439,0h11.518l.637-2.94h-7.623l1.136-5.239h6.928l.637-2.94H236l1-4.6h7.567l.638-2.94H233.735Zm.688-18.307a13.846,13.846,0,0,0-4.5-.668c-3.422,0-7.119,1.523-8.023,5.693-1.339,6.174,7.493,4.7,6.722,8.258-.365,1.684-2.5,2.405-3.972,2.405a8.237,8.237,0,0,1-4.147-1.149l-1.092,3.367a16,16,0,0,0,4.823.726c3.923,0,7.627-1.554,8.513-5.644,1.356-6.254-7.453-4.891-6.751-8.125a3.439,3.439,0,0,1,3.623-2.592,9.154,9.154,0,0,1,3.776.8ZM199.948,63.129h3.895l1.681-7.75h1.252c1.641,0,2.027.534,2.281,1.924l1.073,5.827h4.34l-1.533-7.3c-.21-.829-.6-1.844-1.641-1.924l.012-.054a5.71,5.71,0,0,0,4.946-4.329c1.125-5.185-3.884-5.051-8.058-5.051h-4.2Zm7.3-15.715h1.28c1.948,0,4.077.187,3.59,2.432-.5,2.325-2.76,2.592-4.68,2.592h-1.279ZM180.139,63.129h4.034l2.625-4.276h7.873l.742,4.276h4.312l-3.576-18.655h-4.4Zm14.085-7.216h-5.676l4.479-7.7h.056ZM168.51,63.129h11.435l.638-2.94h-7.54l3.409-15.715h-3.895Z" transform="translate(-98.489 -25.807)" fill="#fff"/>
  </g>
</svg>